Bad Teacher - MP4 Format - Optimsed for the PSP


Bad Teacher
A comedy centered around a foul-mouthed, junior high teacher who, after being dumped by her sugar daddy, begins to woo a colleague -- a move that pits her against a well-loved teacher.

Screens; 
http://img607.imageshack.us/img607/2554/vlcsnap2011080513h08m47.png
 
http://img818.imageshack.us/img818/741/vlcsnap2011080513h08m31.png
 
http://img43.imageshack.us/img43/2042/vlcsnap2011080513h08m13.png

General
Format                           : MPEG-4
Format profile                   : Base Media
Codec ID                         : isom
File size                        : 733 MiB
Duration                         : 1h 28mn
Overall bit rate                 : 1 162 Kbps
Movie name                       : Bad Teacher MP4 - PSP
Encoded date                     : UTC 2011-08-04 01:29:54
Tagged date                      : UTC 2011-08-04 01:29:54
Writing application              : Lavf52.41.0

Video
ID                               : 1
Format                           : AVC
Format/Info                      : Advanced Video Codec
Format profile                   : Main@L3.0
Format settings, CABAC           : Yes
Format settings, ReFrames        : 3 frames
Codec ID                         : avc1
Codec ID/Info                    : Advanced Video Coding
Duration                         : 1h 28mn
Bit rate                         : 1 024 Kbps
Width                            : 720 pixels
Height                           : 480 pixels
Display aspect ratio             : 1.857
Frame rate mode                  : Constant
Frame rate                       : 25.000 fps
Standard                         : NTSC
Color space                      : YUV
Chroma subsampling               : 4:2:0
Bit depth                        : 8 bits
Scan type                        : Progressive
Bits/(Pixel*Frame)               : 0.119
Stream size                      : 646 MiB (88%)
Writing library                  : x264 core 79 r1347 5ddd61b
Encoding settings                : cabac=1 / ref=3 / deblock=1:0:0 / analyse=0x1:0x111 / me=umh / subme=6 / psy=1 / psy_rd=1.0:0.0 / mixed_ref=1 / me_range=16 / chroma_me=1 / trellis=1 / 8x8dct=0 / cqm=0 / deadzone=21,11 / chroma_qp_offset=-2 / threads=3 / nr=0 / decimate=1 / mbaff=0 / constrained_intra=0 / bframes=0 / wpredp=0 / keyint=250 / keyint_min=25 / scenecut=40 / rc_lookahead=40 / rc=cbr / mbtree=0 / bitrate=1024 / ratetol=1.0 / qcomp=0.50 / qpmin=10 / qpmax=51 / qpstep=4 / vbv_maxrate=10000 / vbv_bufsize=10000 / ip_ratio=1.41 / aq=1:1.00
Encoded date                     : UTC 2011-08-04 01:29:54
Tagged date                      : UTC 2011-08-04 01:29:54

Audio
ID                               : 2
Format                           : AAC
Format/Info                      : Advanced Audio Codec
Format profile                   : LC
Codec ID                         : 40
Duration                         : 1h 28mn
Bit rate mode                    : Variable
Bit rate                         : 132.3 Kbps
Channel(s)                       : 2 channels
Channel positions                : Front: L R
Sampling rate                    : 48.0 KHz
Compression mode                 : Lossy
Stream size                      : 84.1 MiB (11%)
Encoded date                     : UTC 2011-08-04 01:29:54
Tagged date                      : UTC 2011-08-04 01:29:54

This is MP4 format so will play on PS3, iPod, AppleTV etc but is optimized for the PSP